<svg width="342.81494140625px" height="120.8px" xmlns="http://www.w3.org/2000/svg" viewBox="78.592529296875 14.600000000000001 342.81494140625 120.8" style="background: none;" preserveAspectRatio="xMidYMid"><defs><filter id="editing-extrusion" x="-100%" y="-100%" width="300%" height="300%"><feFlood result="color1" flood-color="#5e6fa3"></feFlood><feConvolveMatrix order="8,8" divisor="1" kernelMatrix="1 0 0 0 0 0 0 0 0 1 0 0 0 0 0 0 0 0 1 0 0 0 0 0 0 0 0 1 0 0 0 0 0 0 0 0 1 0 0 0 0 0 0 0 0 1 0 0 0 0 0 0 0 0 1 0 0 0 0 0 0 0 0 1" in="SourceAlpha" result="extrude"></feConvolveMatrix><feComposite in="color1" in2="extrude" result="comp-extrude" operator="in"></feComposite><feOffset dx="4" dy="4" in="comp-extrude" result="offset-extrude"></feOffset><feMerge><feMergeNode in="offset-extrude"></feMergeNode><feMergeNode in="SourceGraphic"></feMergeNode></feMerge></filter></defs><g filter="url(#editing-extrusion)"><g transform="translate(131.540034532547, 102.74499893188477)"><path d="M2.30-9.47L2.30-9.47L2.30-9.47Q2.30-11.97 2.94-15.17L2.94-15.17L8.13-42.24L22.27-42.24L17.15-14.98L17.15-14.98Q16.58-11.97 16.58-9.76L16.58-9.76L16.58-9.76Q16.58-7.55 17.50-6.40L17.50-6.40L17.50-6.40Q18.43-5.25 20.16-5.25L20.16-5.25L20.16-5.25Q21.89-5.25 22.98-5.70L22.98-5.70L22.98-5.70Q24.06-6.14 24.96-7.23L24.96-7.23L24.96-7.23Q26.69-9.41 27.78-14.98L27.78-14.98L32.96-42.24L42.62-42.24L37.50-15.04L37.50-15.04Q35.71-5.95 30.78-2.30L30.78-2.30L30.78-2.30Q25.98 1.28 16.51 1.28L16.51 1.28L16.51 1.28Q9.41 1.28 5.63-1.79L5.63-1.79L5.63-1.79Q2.30-4.48 2.30-9.47ZM68.93-42.69L68.93-42.69L68.93-42.69Q84.61-42.69 84.61-31.62L84.61-31.62L84.61-31.62Q84.61-25.54 80.70-21.89L80.70-21.89L80.70-21.89Q76.86-18.24 70.14-18.24L70.14-18.24L70.14-18.24Q67.01-18.24 64.58-20.03L64.58-20.03L64.58-20.03Q63.42-20.80 62.66-21.82L62.66-21.82L62.66-21.82Q67.33-21.82 69.79-24.67L69.79-24.67L69.79-24.67Q72.26-27.52 72.26-33.09L72.26-33.09L72.26-33.09Q72.26-38.66 66.75-38.66L66.75-38.66L65.22-38.66L65.22-38.66Q64.83-38.66 64.51-38.59L64.51-38.59L57.15 0L43.26 0L51.14-41.92L51.14-41.92Q57.98-42.56 61.95-42.62L61.95-42.62L61.95-42.62Q65.92-42.69 68.93-42.69ZM98.18 0L84.22 0L92.35-42.24L106.43-42.24L98.18 0ZM149.12 1.28L149.12 1.28L149.12 1.28Q140.93 1.28 140.16-10.37L140.16-10.37L129.15-10.37L129.15-10.37Q127.87-7.42 126.98-4.86L126.98-4.86L125.31 0L116.35 0L136.51-42.24L150.27-42.24L152.96-11.14L152.96-11.14Q153.60-4.42 156.16-2.43L156.16-2.43L156.16-2.43Q154.30 1.28 149.12 1.28ZM134.66-23.17L131.14-15.04L139.97-15.04L139.20-31.49L139.20-33.22L134.66-23.17ZM189.70-4.38L189.70-4.38L189.70-4.38Q187.01-1.66 183.33-0.19L183.33-0.19L183.33-0.19Q179.65 1.28 176 1.28L176 1.28L176 1.28Q172.35 1.28 171.07 0.64L171.07 0.64L169.09 11.52L156.10 12.80L164.93-32.64L175.36-33.73L174.53-29.31L174.53-29.31Q177.22-33.86 182.78-33.86L182.78-33.86L182.78-33.86Q189.06-33.86 192.38-29.82L192.38-29.82L192.38-29.82Q195.33-26.18 195.33-20.61L195.33-20.61L195.33-20.61Q195.33-15.04 193.86-11.07L193.86-11.07L193.86-11.07Q192.38-7.10 189.70-4.38ZM175.23-22.34L171.84-3.58L171.84-3.58Q173.18-2.43 174.85-2.43L174.85-2.43L174.85-2.43Q176.51-2.43 177.47-3.07L177.47-3.07L177.47-3.07Q178.43-3.71 179.14-4.99L179.14-4.99L179.14-4.99Q181.06-8.45 182.59-18.94L182.59-18.94L182.59-18.94Q183.04-22.02 183.04-25.02L183.04-25.02L183.04-25.02Q183.04-28.03 182.37-28.99L182.37-28.99L182.37-28.99Q181.70-29.95 180.42-29.95L180.42-29.95L180.42-29.95Q176.51-29.95 175.23-22.34L175.23-22.34ZM228.99-4.38L228.99-4.38L228.99-4.38Q226.30-1.66 222.62-0.19L222.62-0.19L222.62-0.19Q218.94 1.28 215.30 1.28L215.30 1.28L215.30 1.28Q211.65 1.28 210.37 0.64L210.37 0.64L208.38 11.52L195.39 12.80L204.22-32.64L214.66-33.73L213.82-29.31L213.82-29.31Q216.51-33.86 222.08-33.86L222.08-33.86L222.08-33.86Q228.35-33.86 231.68-29.82L231.68-29.82L231.68-29.82Q234.62-26.18 234.62-20.61L234.62-20.61L234.62-20.61Q234.62-15.04 233.15-11.07L233.15-11.07L233.15-11.07Q231.68-7.10 228.99-4.38ZM214.53-22.34L211.14-3.58L211.14-3.58Q212.48-2.43 214.14-2.43L214.14-2.43L214.14-2.43Q215.81-2.43 216.77-3.07L216.77-3.07L216.77-3.07Q217.73-3.71 218.43-4.99L218.43-4.99L218.43-4.99Q220.35-8.45 221.89-18.94L221.89-18.94L221.89-18.94Q222.34-22.02 222.34-25.02L222.34-25.02L222.34-25.02Q222.34-28.03 221.66-28.99L221.66-28.99L221.66-28.99Q220.99-29.95 219.71-29.95L219.71-29.95L219.71-29.95Q215.81-29.95 214.53-22.34L214.53-22.34Z" fill="#689cc5"></path></g></g><style>text {
  font-size: 64px;
  font-family: Arial Black;
  dominant-baseline: central;
  text-anchor: middle;
}</style></svg>