<svg xmlns="http://www.w3.org/2000/svg" viewBox="0 0 17.46 22.34"><defs><style>.cls-1,.cls-2{fill:#637381;}.cls-2{isolation:isolate;opacity:0.4;}</style></defs><g id="Layer_2" data-name="Layer 2"><g id="Layer_1-2" data-name="Layer 1"><path class="cls-1" d="M17.46,16.93c0-4.42,0-8.84,0-13.26a1.15,1.15,0,0,0-1.08-1.14H14.7c0-.47,0-.95,0-1.43A1.18,1.18,0,0,0,13.63,0h-.21a1.19,1.19,0,0,0-1.06,1.09c0,.48,0,1,0,1.43H9.9c0-.48,0-1,0-1.46A1.18,1.18,0,0,0,8.83,0H8.62A1.19,1.19,0,0,0,7.56,1.09c0,.48,0,1,0,1.43H5.1V1.17A1.19,1.19,0,0,0,4,0H3.82A1.18,1.18,0,0,0,2.76,1.18V2.52H1.09A1.14,1.14,0,0,0,0,3.62C0,4,0,5.72,0,6.86a2.09,2.09,0,0,1,0,.25V20.77a2.33,2.33,0,0,0,.09.87,1.21,1.21,0,0,0,1,.7H16.42a1.19,1.19,0,0,0,.83-.5,1.24,1.24,0,0,0,.21-.72c0-.61,0-1.22,0-1.83C17.46,18.52,17.45,17,17.46,16.93ZM13,1.18a.51.51,0,0,1,1-.05c0,.83,0,1.66,0,2.49a.56.56,0,0,1-.18.47.51.51,0,0,1-.69,0A.59.59,0,0,1,13,3.62C13,2.81,13,2,13,1.18Zm-4.81,0a.54.54,0,0,1,.36-.5.51.51,0,0,1,.67.5c0,.83,0,1.66,0,2.49a.53.53,0,0,1-.2.44.54.54,0,0,1-.65,0,.58.58,0,0,1-.18-.42Zm-4.8,0a.52.52,0,0,1,1-.05c0,.83,0,1.66,0,2.49a.55.55,0,0,1-.18.47.52.52,0,0,1-.69,0,.6.6,0,0,1-.16-.45C3.42,2.81,3.41,2,3.41,1.18ZM16.56,21.61a1.11,1.11,0,0,1-.54.08H1.18a.5.5,0,0,1-.52-.51V7.11a1.33,1.33,0,0,1,0-.2V3.71a.5.5,0,0,1,.21-.44.61.61,0,0,1,.4-.09H2.76a2.36,2.36,0,0,0,.1,1,1.17,1.17,0,0,0,1.24.68,1.15,1.15,0,0,0,1-.93,4.54,4.54,0,0,0,0-.74H7.56a6.1,6.1,0,0,0,0,.74,1.17,1.17,0,0,0,2.22.25,2.54,2.54,0,0,0,.1-1h2.46a2.35,2.35,0,0,0,.11,1A1.17,1.17,0,0,0,14.67,4a5.09,5.09,0,0,0,0-.78c.54,0,1.08,0,1.62,0a.5.5,0,0,1,.48.53V19.6h0v1.56A.52.52,0,0,1,16.56,21.61Z"/><path class="cls-1" d="M5.34,6.69,3.59,8.79c-.1-.18-.21-.36-.32-.53S3.16,8.07,3.05,8a.32.32,0,0,0-.42.18.35.35,0,0,0,0,.33l.6,1a.33.33,0,0,0,.46.11A1.37,1.37,0,0,0,4,9.37L5.84,7.11a.33.33,0,1,0-.5-.42Z"/><path class="cls-1" d="M14.1,7.78c-2.33,0-4.65,0-7,0a1,1,0,0,0-.32,2,1.51,1.51,0,0,0,.7.1h6.58a1.07,1.07,0,0,0,.76-.3,1,1,0,0,0,.26-1A1,1,0,0,0,14.1,7.78Zm.24,1.32a.67.67,0,0,1-.42.07H7.29A.41.41,0,0,1,6.89,9a.37.37,0,0,1,.24-.5.41.41,0,0,1,.16,0H14.1a.37.37,0,0,1,.24.67Z"/><path class="cls-1" d="M5.34,11c-.58.7-1.16,1.4-1.75,2.09-.13-.21-.25-.43-.39-.63a.32.32,0,0,0-.54.36l.61,1a.33.33,0,0,0,.46.11A1.79,1.79,0,0,0,4,13.69l1.88-2.26a.33.33,0,1,0-.5-.42Z"/><path class="cls-1" d="M7.29,14.16h6.85a1,1,0,1,0,0-2.05h-7a1,1,0,0,0-.89.76,1,1,0,0,0,.3,1A1.09,1.09,0,0,0,7.29,14.16Zm-.11-1.4H14.1a.37.37,0,0,1,.4.37.38.38,0,0,1-.4.37H7.29a.37.37,0,0,1-.11-.74Z"/><path class="cls-1" d="M5.42,15.28a1.55,1.55,0,0,0-.21.23L3.59,17.45l-.33-.55c-.06-.08-.12-.18-.22-.21a.33.33,0,0,0-.42.24.42.42,0,0,0,.09.34c.2.31.38.62.57.92a.33.33,0,0,0,.55,0l2-2.41a.35.35,0,0,0,0-.4A.34.34,0,0,0,5.42,15.28Z"/><path class="cls-1" d="M14.36,16.46a2.33,2.33,0,0,0-.53,0H7.55a2.31,2.31,0,0,0-.59,0,1.06,1.06,0,0,0-.72.72,1,1,0,0,0,.23.95,1,1,0,0,0,.77.34H14.1a1,1,0,0,0,1-1.37A1,1,0,0,0,14.36,16.46Zm-.26,1.37H7.29a.39.39,0,0,1-.39-.21.37.37,0,0,1,.18-.5,1,1,0,0,1,.38,0h6.63a.38.38,0,0,1,.41.36A.37.37,0,0,1,14.1,17.83Z"/><path class="cls-2" d="M14.46,3V1.3a.83.83,0,0,0-1.66,0V3H9.53V1.3a.83.83,0,1,0-1.66,0V3H4.76V1.3a.83.83,0,0,0-1.66,0V3H.42V21.87H17V3Z"/></g></g></svg>