<svg xmlns="http://www.w3.org/2000/svg" viewBox="0 0 21.47 21.47"><defs><style>.cls-1,.cls-2{fill:#637381;}.cls-2{isolation:isolate;opacity:0.4;}</style></defs><g id="Layer_2" data-name="Layer 2"><g id="Layer_1-2" data-name="Layer 1"><g id="_000000ff" data-name="#000000ff"><path class="cls-1" d="M17.38.67a2.42,2.42,0,0,1,3.34,3.51,2.52,2.52,0,0,1-1.32.64c0,2.26,0,4.52,0,6.79a5.54,5.54,0,1,1-9,4.67c-3.47,0-6.94,0-10.41,0V2.42H16.62A2.41,2.41,0,0,1,17.38.67m1.34,0A1.74,1.74,0,0,0,18,3.77a1.77,1.77,0,0,0,1.31.37,1.74,1.74,0,0,0,1.49-2,1.75,1.75,0,0,0-2-1.44m-18,2.4V15.58h9.72a5.4,5.4,0,0,1,.08-.69H9.7V10.73h2.08c0,.52,0,1,0,1.55a5.5,5.5,0,0,1,6.92-1.14V4.82a2.44,2.44,0,0,1-1.1-.46L15.48,6.48A1,1,0,0,1,14.68,8a1,1,0,0,1-1.07-1.47c-.23-.24-.46-.47-.7-.7a1,1,0,0,1-.89,0L10.29,7.52a1,1,0,0,1-.07,1A1.06,1.06,0,0,1,9.17,9a1.05,1.05,0,0,1-.85-.89,1,1,0,0,1,.55-1A1,1,0,0,1,9.8,7l1.73-1.74A1,1,0,0,1,12.6,3.82a1,1,0,0,1,.85.69,1,1,0,0,1,0,.78l.7.7A1,1,0,0,1,15,6l2.12-2.12a2.53,2.53,0,0,1-.38-.75c-.15,0-.3,0-.45,0-5.2,0-10.39,0-15.59,0m11.66,1.4a.35.35,0,0,0-.11.59.35.35,0,1,0,.11-.59M14.43,6.6a.35.35,0,0,0-.11.59A.35.35,0,0,0,14.88,7a.35.35,0,0,0-.45-.41m-5.2,1a.35.35,0,1,0,.46.41.35.35,0,0,0-.46-.41M13,12.06a4.86,4.86,0,0,0-1.87,3.13A4.92,4.92,0,0,0,11.57,18c.41-.22.81-.46,1.21-.69a3.42,3.42,0,0,1-.29-1.81,3.48,3.48,0,0,1,1.12-2.18,3.58,3.58,0,0,1,2-.88V11.1a4.82,4.82,0,0,0-2.57,1m3.27-1c0,.46,0,.92,0,1.39a3.45,3.45,0,0,1,3.07,2.92,3.4,3.4,0,0,1-.26,1.94l1.2.69A4.81,4.81,0,0,0,19,12.22a4.76,4.76,0,0,0-2.76-1.12m-5.89.33V14.2h.29a5.42,5.42,0,0,1,.35-.83s.06-.1.05-.15V11.43h-.69m5.13,1.76a2.8,2.8,0,0,0-2.34,2.39,2.71,2.71,0,0,0,.41,1.82,2.76,2.76,0,0,0,4.94-.52,2.7,2.7,0,0,0,0-1.9,2.78,2.78,0,0,0-3-1.79m-3.6,5.46A4.85,4.85,0,0,0,18.54,20a4.78,4.78,0,0,0,1.4-1.36l-1.2-.7a3.47,3.47,0,0,1-3.95,1.25A3.56,3.56,0,0,1,13.12,18Z"/><path class="cls-1" d="M1.39,3.81h.69V4.5H1.39Z"/><path class="cls-1" d="M2.77,3.81H7.62V4.5H2.77Z"/><path class="cls-1" d="M1.39,5.19h.69v.7H1.39Z"/><path class="cls-1" d="M2.77,5.19H7.62v.7H2.77Z"/><path class="cls-1" d="M1.39,6.58h.69v.69H1.39Z"/><path class="cls-1" d="M2.77,6.58H7.62v.69H2.77Z"/><path class="cls-1" d="M1.39,8h.69v.7H1.39C1.38,8.43,1.39,8.2,1.39,8Z"/><path class="cls-1" d="M2.77,8H7.62v.7H2.77Z"/><path class="cls-1" d="M6.93,9.35H9v5.54H6.93V9.35m.69.69V14.2h.69V10Z"/><path class="cls-1" d="M1.39,11.43H3.46v3.46H1.39V11.43m.69.69V14.2h.69V12.12Z"/><path class="cls-1" d="M4.16,12.12H6.23v2.77H4.16V12.12m.69.69V14.2h.69V12.81Z"/><path class="cls-1" d="M15.56,13.89a2.05,2.05,0,0,1,1.61.37,2.09,2.09,0,1,1-1.61-.37m.2.66a1.41,1.41,0,0,0-1.09.81,1.38,1.38,0,1,0,1.09-.81Z"/></g><path class="cls-2" d="M19.1,12.13V4.3a2,2,0,1,0-2.11-2,1.37,1.37,0,0,0,0,.19H.33v13.4h10.6v.07a5,5,0,1,0,8.17-3.8Z"/></g></g></svg>