<?xml version="1.0" encoding="utf-8"?>
<!-- Generator: Adobe Illustrator 26.0.0, SVG Export Plug-In . SVG Version: 6.00 Build 0)  -->
<svg version="1.1" id="Layer_1" xmlns="http://www.w3.org/2000/svg" xmlns:xlink="http://www.w3.org/1999/xlink" x="0px" y="0px"
	 viewBox="0 0 22.3 18.6" style="enable-background:new 0 0 22.3 18.6;" xml:space="preserve">
<style type="text/css">
	.st0{fill:#637381;}
	.st1{opacity:0.4;fill:#637381;enable-background:new    ;}
</style>
<g id="Layer_2_00000176749934767670909880000004275331825221743251_">
	<g id="Layer_1-2">
		<g id="_000000ff">
			<path class="st0" d="M0,0.3C0,0.1,0.2,0,0.4,0h2.8C4,0,4.7,0.5,5,1.3C5.1,1.5,5.2,1.7,5.2,2c0.1,0.7,0.2,1.3,0.3,2h16.3
				c0.2,0,0.4,0.1,0.4,0.3v0.1c-0.5,2.4-1.1,4.8-1.7,7.3c0,0.3-0.1,0.6-0.3,0.9c-0.3,0.6-1,1-1.6,1H7.1c0.1,0.9,0.3,1.7,0.4,2.5
				c0,0.1,0.1,0.2,0.2,0.2h0.6c0.1-0.5,0.4-1,0.8-1.2c0.5-0.3,1.1-0.4,1.7-0.1c0.6,0.3,1,0.8,1.1,1.4h4.6c0.1-0.5,0.4-1,0.9-1.3
				c0.5-0.3,1.1-0.3,1.6-0.1c0.5,0.2,0.8,0.5,1,1c0.2,0.5,0.2,1,0,1.5c-0.2,0.5-0.6,0.8-1,1c-0.4,0.2-0.9,0.2-1.4,0
				c-0.5-0.3-0.9-0.7-1-1.3h-4.7c-0.1,0.5-0.4,0.9-0.8,1.2c-0.5,0.3-1.2,0.3-1.8,0.1c-0.5-0.3-0.9-0.7-1-1.3H7.6
				c-0.4-0.1-0.8-0.4-0.8-0.8L4.4,1.9C4.3,1.3,3.8,0.8,3.1,0.8c-0.9,0-1.8,0-2.7,0C0.2,0.8,0,0.6,0,0.5V0.3 M5.7,4.8
				c0.4,2.7,0.8,5.4,1.3,8.1h11.7c0.5,0,1-0.4,1.1-0.9c0.6-2.4,1.1-4.8,1.7-7.2L5.7,4.8 M9.8,15.6C9.3,15.8,9,16.2,9,16.7
				c0,0.5,0.3,0.9,0.8,1.1c0.4,0.1,0.9-0.1,1.1-0.4c0.3-0.4,0.2-1-0.1-1.4C10.6,15.7,10.2,15.6,9.8,15.6 M18.1,15.7
				c-0.6,0.1-1,0.7-0.9,1.2c0,0.6,0.6,1,1.2,1c0.6-0.1,1-0.7,0.9-1.3C19.3,16,18.8,15.6,18.1,15.7C18.2,15.6,18.2,15.6,18.1,15.7
				L18.1,15.7z"/>
			<path class="st0" d="M13.3,5.2c1.5-0.1,3,0.8,3.6,2.2c0.8,1.8,0,4-1.9,4.8c-0.4,0.2-0.9,0.3-1.3,0.3C11.7,12.5,10,11,9.9,9
				c0-1.2,0.5-2.4,1.5-3.1C12,5.5,12.7,5.2,13.3,5.2 M13.3,6c-0.7,0-1.3,0.3-1.8,0.8c-1.2,1.1-1.3,2.9-0.2,4.1s2.9,1.3,4.1,0.2
				s1.3-2.9,0.2-4.1C15.1,6.3,14.2,6,13.3,6L13.3,6z"/>
			<path class="st0" d="M13.2,6.9c0-0.2,0.1-0.4,0.3-0.4c0.2,0,0.4,0.1,0.4,0.3c0,0,0,0.1,0,0.1c0,0.5,0,1,0,1.5h1.5
				c0.2,0,0.4,0.2,0.4,0.4c0,0.2-0.2,0.4-0.4,0.4c0,0,0,0,0,0H14c0,0.5,0,1,0,1.5c0,0.2-0.2,0.4-0.4,0.4c-0.2,0-0.4-0.2-0.4-0.4V9.1
				h-1.6c-0.2,0-0.4-0.2-0.4-0.4c0,0,0,0,0,0c0-0.2,0.2-0.3,0.4-0.3h1.5V6.9z"/>
		</g>
		<circle class="st1" cx="18.3" cy="16.7" r="1.4"/>
		<circle class="st1" cx="10" cy="16.7" r="1.4"/>
		<path class="st1" d="M5.2,4.4l1.4,8.9h11.7c0,0,1.9,0,2.2-2.6s1.3-6.2,1.3-6.2S5.1,4.3,5.2,4.4z"/>
	</g>
</g>
</svg>
