<svg xmlns="http://www.w3.org/2000/svg" viewBox="0 0 22.12 18.76"><defs><style>.cls-1,.cls-2{fill:#637381;}.cls-2{isolation:isolate;opacity:0.4;}</style></defs><g id="Layer_2" data-name="Layer 2"><g id="Layer_1-2" data-name="Layer 1"><path class="cls-1" d="M10.52,0a3.76,3.76,0,0,1,2.19.34A3.83,3.83,0,1,1,9.06,7.1,3.85,3.85,0,0,1,7.6,5.49a3.91,3.91,0,0,1-.38-1.78,3.86,3.86,0,0,1,1-2.45A3.8,3.8,0,0,1,10.52,0Z"/><path class="cls-1" d="M3.94,3.6A2.91,2.91,0,0,1,5.81,4,2.88,2.88,0,0,1,7,7.38,2.94,2.94,0,0,1,5.1,9.21,2.93,2.93,0,0,1,3,9,2.89,2.89,0,0,1,1.66,7.54a2.88,2.88,0,0,1,.69-3.19A3,3,0,0,1,3.94,3.6Z"/><path class="cls-1" d="M17.46,3.6a2.83,2.83,0,0,1,1.8.38,2.86,2.86,0,0,1,1.21,3.53A2.93,2.93,0,0,1,19.08,9a2.88,2.88,0,0,1-2,.2,2.91,2.91,0,0,1-1.71-1.29,2.85,2.85,0,0,1-.29-2.33A2.89,2.89,0,0,1,17.46,3.6Z"/><path class="cls-2" d="M8.78,8.48c.22,0,.45,0,.68,0H13a3.2,3.2,0,0,1,3,2.08,3.32,3.32,0,0,1,.21,1.17v6.18a1.06,1.06,0,0,1-.08.53.66.66,0,0,1-.62.34H6.57a.65.65,0,0,1-.66-.66V11.67A3.21,3.21,0,0,1,8.78,8.48Z"/><path class="cls-2" d="M1,11a3.14,3.14,0,0,1,2.08-.84c.59,0,1.19,0,1.78,0a5,5,0,0,0-.27,1.62v5.71a4.38,4.38,0,0,0,.11,1.3H2.5a5.92,5.92,0,0,1-.94,0,1.91,1.91,0,0,1-1-.53A2,2,0,0,1,0,16.86V13.25A3.2,3.2,0,0,1,1,11Z"/><path class="cls-2" d="M17.21,10.13h1.54a3.45,3.45,0,0,1,1,.11,3.18,3.18,0,0,1,2.41,3v3.61a2.06,2.06,0,0,1-.22.85,2,2,0,0,1-1.38,1,6.92,6.92,0,0,1-.91,0H17.37a2.08,2.08,0,0,0,.11-.74V11.71A4.68,4.68,0,0,0,17.21,10.13Z"/></g></g></svg>