<svg xmlns="http://www.w3.org/2000/svg" viewBox="0 0 22.93 22.93"><defs><style>.cls-1,.cls-2{fill:#637381;}.cls-1{isolation:isolate;opacity:0.4;}</style></defs><g id="Layer_2" data-name="Layer 2"><g id="Layer_1-2" data-name="Layer 1"><g id="_000000ff" data-name="#000000ff"><path class="cls-1" d="M5.48,21.15,2.32,17.8,3.6,16.3l.19-1.15-.67-1.62-2.26.06-.61-1,.26-3.1,2.36-.16.76-.67L4.11,7,2.8,5.71l-.48-.64L4.37,2.84l.89-.42L7.18,4.08l2.1-.89S9,.63,10,.44A11.88,11.88,0,0,1,12.47.35l.9.22.35,1.24-.13,1.31,2.07,1,2.21-1.75,1.78,1.53.8,1-.41,1-1.15.93.35,1.34.61,1.11,2.39.13.38.67.07,2.55-.39.87-2.52.09-.64,1.47-.25.73,1.43,1.66.07.8-2.24,2.08-.83.73-.16,1.37H5.58S5.45,21.12,5.48,21.15Z"/><path class="cls-2" d="M10.81,5.41a6,6,0,0,1,3.63.74,6.12,6.12,0,0,1,3,6.39,6.06,6.06,0,0,1-1.13,2.58.36.36,0,0,1-.55,0,.38.38,0,0,1,0-.5,5.37,5.37,0,0,0-6.71-8,5.37,5.37,0,0,0-2,7.88c.09.13.22.26.19.43a.36.36,0,0,1-.43.3c-.17,0-.25-.2-.35-.32a6.1,6.1,0,0,1,4.35-9.53Z"/><path class="cls-2" d="M11.21,8.22a3.31,3.31,0,0,1,3.33,2.09,3.3,3.3,0,0,1-4.95,3.92,3.38,3.38,0,0,1-1.34-2,3.26,3.26,0,0,1,.31-2.33,3.31,3.31,0,0,1,2.65-1.72M11,9A2.6,2.6,0,0,0,9,12.3a2.67,2.67,0,0,0,1.16,1.44,2.61,2.61,0,0,0,1.93.28,2.64,2.64,0,0,0,1.56-1.13,2.61,2.61,0,0,0-.78-3.55A2.62,2.62,0,0,0,11,9Z"/><path class="cls-2" d="M21.8,9H20a8.72,8.72,0,0,0-.73-1.76L20.5,6a1.21,1.21,0,0,0,.25-1.28,1.46,1.46,0,0,0-.37-.52L18.63,2.42a1.2,1.2,0,0,0-1.39-.19,2,2,0,0,0-.47.39L15.71,3.68A9.24,9.24,0,0,0,14,3c0-.61,0-1.22,0-1.83A1.22,1.22,0,0,0,12.85,0H10.07a1.25,1.25,0,0,0-1,.61A1.27,1.27,0,0,0,9,1.3V3a10,10,0,0,0-1.76.73L6,2.45A1.2,1.2,0,0,0,4.32,2.4L2.42,4.3a1.2,1.2,0,0,0,0,1.63c.42.43.86.85,1.28,1.28A9.33,9.33,0,0,0,3,9H1.12A1.21,1.21,0,0,0,0,10.06v2.8A1.21,1.21,0,0,0,1.12,14H3a9.64,9.64,0,0,0,.73,1.75L2.45,17a1.2,1.2,0,0,0,0,1.68l2.89,2.89.06.05v1a.38.38,0,0,0,.31.36H17.26a.39.39,0,0,0,.3-.4v-1a.8.8,0,0,0,.19-.13l2.76-2.76a1.22,1.22,0,0,0,.25-1.25,1.42,1.42,0,0,0-.39-.54l-1.13-1.13A8.63,8.63,0,0,0,20,14H21.8a1.23,1.23,0,0,0,1.13-1.11V10.07A1.22,1.22,0,0,0,21.8,9ZM6.09,22.21c0-1.09,0-2.18,0-3.27a3.08,3.08,0,0,1,.52-1.72,3.13,3.13,0,0,1,2-1.35c.79,2.12,1.6,4.23,2.4,6.34Zm4.76-2.56c.15-.87.32-1.73.48-2.59a.39.39,0,0,0,0-.28l-.52-1h1.38c-.16.3-.32.61-.49.91a.41.41,0,0,0-.07.29c.15.87.34,1.75.49,2.63-.2.54-.41,1.08-.62,1.62C11.26,20.73,11,20.19,10.85,19.65Zm1,2.56c.8-2.11,1.61-4.22,2.4-6.34a3.16,3.16,0,0,1,2.56,3.07v3.27Zm10.33-9.44a.49.49,0,0,1-.45.47H19.7a.36.36,0,0,0-.35.28,7.94,7.94,0,0,1-.81,2,.55.55,0,0,0-.1.31.51.51,0,0,0,.19.3L20,17.44a.48.48,0,0,1,0,.7l-2.42,2.43V18.94a3.85,3.85,0,0,0-.82-2.37,3.81,3.81,0,0,0-2.68-1.44.36.36,0,0,0-.37.27c-.37,1-.74,2-1.12,3-.08-.45-.17-.9-.25-1.35l.74-1.37a.35.35,0,0,0-.08-.46.62.62,0,0,0-.4-.08H10.17a.36.36,0,0,0-.32.51l.76,1.4c-.09.45-.17.9-.26,1.35-.38-1-.75-2-1.12-3a.35.35,0,0,0-.36-.27,3.81,3.81,0,0,0-3.14,2.2A3.85,3.85,0,0,0,5.37,19v1.54L3,18.14a.48.48,0,0,1,0-.68l1.41-1.41a.36.36,0,0,0,.07-.46,8.32,8.32,0,0,1-.82-1.95.57.57,0,0,0-.15-.31.47.47,0,0,0-.33-.09H1.2a.48.48,0,0,1-.48-.47c0-.83,0-1.65,0-2.47a1,1,0,0,1,0-.3.5.5,0,0,1,.46-.32h2a.36.36,0,0,0,.36-.28,8.23,8.23,0,0,1,.8-2,.4.4,0,0,0,0-.57C3.88,6.39,3.41,5.93,3,5.47a.49.49,0,0,1,0-.69L4.76,3a.51.51,0,0,1,.78,0l1.29,1.3a.43.43,0,0,0,.29.16.52.52,0,0,0,.31-.1,7.62,7.62,0,0,1,1.66-.71c.13,0,.27-.07.4-.13a.36.36,0,0,0,.19-.36v-2a.48.48,0,0,1,.48-.49c.82,0,1.64,0,2.47,0A.71.71,0,0,1,13,.77a.48.48,0,0,1,.26.43c0,.68,0,1.35,0,2a.36.36,0,0,0,.28.35,8.51,8.51,0,0,1,2,.8.58.58,0,0,0,.34.11.4.4,0,0,0,.26-.14L17.44,3a.5.5,0,0,1,.77,0c.59.6,1.18,1.18,1.77,1.77a.5.5,0,0,1,0,.69L18.59,6.85a.41.41,0,0,0-.05.58,7.87,7.87,0,0,1,.81,2,.35.35,0,0,0,.35.28h2a.48.48,0,0,1,.42.24.7.7,0,0,1,.07.38Z"/></g></g></g></svg>